# Blender v2.74 (sub 0) OBJ File: ''
# www.blender.org
mtllib hatsune-miku-vocaloid-2-poster.mtl
o Hatsune_Miku_VOCALOID_2_obj_1
v 5.325091 -0.060696 0.049215
v 5.221299 -0.164506 0.049215
v 5.325091 -6.635622 0.049215
v 5.325091 -6.635622 0.049215
v 5.221299 -0.164506 0.049215
v 5.221299 -6.531812 0.049215
v 5.372745 -0.013036 -0.049215
v 5.325091 -0.060696 0.049215
v 5.372745 -6.683283 -0.049215
v 5.372745 -6.683283 -0.049215
v 5.325091 -0.060696 0.049215
v 5.325091 -6.635622 0.049215
v 5.221299 -0.164506 0.049215
v 5.173645 -0.212167 -0.049215
v 5.221299 -6.531812 0.049215
v 5.221299 -6.531812 0.049215
v 5.173645 -0.212167 -0.049215
v 5.173645 -6.484151 -0.049215
v -5.170725 -6.531812 0.049215
v -5.170725 -0.164506 0.049215
v -5.274518 -6.635622 0.049215
v -5.274518 -6.635622 0.049215
v -5.170725 -0.164506 0.049215
v -5.274518 -0.060696 0.049215
v -5.274518 -6.635622 0.049215
v -5.274518 -0.060696 0.049215
v -5.322171 -6.683283 -0.049215
v -5.322171 -6.683283 -0.049215
v -5.274518 -0.060696 0.049215
v -5.322171 -0.013036 -0.049215
v -5.123072 -6.484151 -0.049215
v -5.123072 -0.212167 -0.049215
v -5.170725 -6.531812 0.049215
v -5.170725 -6.531812 0.049215
v -5.123072 -0.212167 -0.049215
v -5.170725 -0.164506 0.049215
v 5.325091 -6.635622 0.049215
v 5.221299 -6.531812 0.049215
v -5.274518 -6.635622 0.049215
v -5.274518 -6.635622 0.049215
v 5.221299 -6.531812 0.049215
v -5.170725 -6.531812 0.049215
v 5.372745 -6.683283 -0.049215
v 5.325091 -6.635622 0.049215
v -5.322171 -6.683283 -0.049215
v -5.322171 -6.683283 -0.049215
v 5.325091 -6.635622 0.049215
v -5.274518 -6.635622 0.049215
v 5.221299 -6.531812 0.049215
v 5.173645 -6.484151 -0.049215
v -5.170725 -6.531812 0.049215
v -5.170725 -6.531812 0.049215
v 5.173645 -6.484151 -0.049215
v -5.123072 -6.484151 -0.049215
v 5.325091 -0.060696 0.049215
v -5.274518 -0.060696 0.049215
v 5.221299 -0.164506 0.049215
v 5.221299 -0.164506 0.049215
v -5.274518 -0.060696 0.049215
v -5.170725 -0.164506 0.049215
v 5.372745 -0.013036 -0.049215
v -5.322171 -0.013036 -0.049215
v 5.325091 -0.060696 0.049215
v 5.325091 -0.060696 0.049215
v -5.322171 -0.013036 -0.049215
v -5.274518 -0.060696 0.049215
v 5.221299 -0.164506 0.049215
v -5.170725 -0.164506 0.049215
v 5.173645 -0.212167 -0.049215
v 5.173645 -0.212167 -0.049215
v -5.170725 -0.164506 0.049215
v -5.123072 -0.212167 -0.049215
v 5.173645 -0.212167 -0.049215
v -5.123072 -0.212167 -0.049215
v 5.173645 -6.484151 -0.049215
v 5.173645 -6.484151 -0.049215
v -5.123072 -0.212167 -0.049215
v -5.123072 -6.484151 -0.049215
vt 2.951208 0.009128
vt 2.929338 0.024491
vt 1.971298 0.009128
vt 1.993168 0.024491
vt 2.961239 0.002079
vt 1.961266 0.002079
vt 2.919216 0.031540
vt 2.003199 0.031540
vt 0.989218 0.999973
vt 0.000000 0.999973
vt 0.989218 0.059465
vt 0.000000 0.059465
vn -0.000000 0.000000 1.000000
vn 0.900100 0.000000 0.435800
vn -0.900100 0.000000 0.435800
vn 0.000000 -0.900000 0.435800
vn 0.000000 0.900000 0.435800
usemtl W002_Diffuse7
s 1
f 1/1/1 2/2/1 3/3/1
f 4/3/1 5/2/1 6/4/1
f 7/5/2 8/1/2 9/6/2
f 10/6/2 11/1/2 12/3/2
f 13/2/3 14/7/3 15/4/3
f 16/4/3 17/7/3 18/8/3
f 19/1/1 20/2/1 21/3/1
f 22/3/1 23/2/1 24/4/1
f 25/5/3 26/1/3 27/6/3
f 28/6/3 29/1/3 30/3/3
f 31/2/2 32/7/2 33/4/2
f 34/4/2 35/7/2 36/8/2
f 37/1/1 38/2/1 39/3/1
f 40/3/1 41/2/1 42/4/1
f 43/5/4 44/1/4 45/6/4
f 46/6/4 47/1/4 48/3/4
f 49/2/5 50/7/5 51/4/5
f 52/4/5 53/7/5 54/8/5
f 55/1/1 56/2/1 57/3/1
f 58/3/1 59/2/1 60/4/1
f 61/5/5 62/1/5 63/6/5
f 64/6/5 65/1/5 66/3/5
f 67/2/4 68/7/4 69/4/4
f 70/4/4 71/7/4 72/8/4
f 73/9/1 74/10/1 75/11/1
f 76/11/1 77/10/1 78/12/1
